<svg width="52" height="69" viewBox="0 0 52 69" fill="none" xmlns="http://www.w3.org/2000/svg">
<g clip-path="url(#clip0)">
<path d="M42.7068 43.5583C42.7068 49.2798 39.5849 54.2862 34.9646 56.9653" stroke="#233C55" stroke-width="2.0868" stroke-miterlimit="10" stroke-linecap="round" stroke-linejoin="round"/>
<path d="M42.548 38.677L42.4685 37.099" stroke="#233C55" stroke-width="2.0868" stroke-miterlimit="10" stroke-linecap="round" stroke-linejoin="round"/>
<path d="M6.13013 34.3631C10.9207 14.9282 27.8923 1.04443 27.8923 1.04443C27.8923 1.04443 50.9031 19.8663 50.9031 44.3643C50.9031 57.0674 40.5953 67.3752 27.8923 67.3752C24.7591 67.3752 21.7734 66.7508 19.0489 65.6156" stroke="#233C55" stroke-width="2.0868" stroke-miterlimit="10" stroke-linecap="round" stroke-linejoin="round"/>
<path d="M11.5226 35.6685C9.03649 36.7129 7.91262 37.5643 6.98175 38.6314C6.90228 38.7336 7.65152 39.3239 7.57206 39.4261C6.59577 40.6067 4.99511 41.4014 4.3821 42.7523C4.34804 42.8431 5.14269 43.4221 5.10864 43.5129C4.54103 44.8297 3.29229 45.7152 2.98578 47.1229C2.96307 47.2364 3.76908 47.8494 3.74637 47.9629C3.49663 49.189 2.48628 49.9382 2.35006 51.187C2.3387 51.3459 3.15606 52.0043 3.13336 52.1632C2.99713 53.6844 2.0776 54.6948 2.02084 56.1592C2.00949 56.3181 2.8382 56.9766 2.8382 57.1468C2.78144 58.5432 1.89597 59.3832 1.80515 60.6547C1.7938 60.7909 2.62251 61.4266 2.61116 61.5628C2.40682 64.1171 2.02084 66.3194 1.0332 67.8406C1.0332 67.8406 4.54103 67.5114 9.01379 65.854C9.13866 65.8086 10.0922 66.2626 10.2171 66.2172C11.4772 65.7404 11.9654 64.6506 13.3049 63.9355C13.4071 63.8787 14.338 64.3214 14.4401 64.2647C15.6208 63.6289 15.9613 62.3802 17.1192 61.5288C17.2101 61.4607 18.1409 61.8921 18.2318 61.8239C19.2307 61.0633 19.3783 59.7238 20.3092 58.7929C20.4 58.7021 21.3309 59.1108 21.4217 59.0086C22.2731 58.1231 22.2391 56.6701 22.9883 55.6143C23.0678 55.5008 23.976 55.8868 24.0554 55.7732C24.5436 55.0694 24.8955 52.4584 25.0317 52.1746C25.0998 52.0384 25.9966 52.3903 26.0648 52.2541C26.6324 50.9713 26.1669 49.2117 26.394 47.997C26.4167 47.8948 27.2794 48.3035 27.2794 48.2013C27.2681 34.0338 18.6518 32.6602 11.5226 35.6685Z" stroke="#63B016" stroke-width="2.0868" stroke-miterlimit="10" stroke-linecap="round" stroke-linejoin="round"/>
<path d="M7.17456 62.051C11.2386 56.4998 20.3999 41.4922 21.5237 23.4309L25.0769 24.4299C25.0769 24.4299 24.5093 28.6756 22.8746 32.7738" stroke="#63B016" stroke-width="2.0868" stroke-miterlimit="10" stroke-linecap="round" stroke-linejoin="round"/>
</g>
<defs>
<clipPath id="clip0">
<rect width="51.9476" height="68.8623" fill="white"/>
</clipPath>
</defs>
</svg>
