<svg width="66" height="70" viewBox="0 0 66 70" fill="none" xmlns="http://www.w3.org/2000/svg">
<g clip-path="url(#clip0)">
<path d="M45.5702 30.9842V24.7297C45.5702 23.091 45.074 21.4986 44.1624 20.1369L39.3157 12.9822C38.4848 11.759 38.0463 9.11642 38.0463 7.65088H32.7727H27.499C27.499 9.12796 27.0605 11.7706 26.2296 12.9822L21.3829 20.1369C20.4598 21.487 19.9751 23.091 19.9751 24.7297V30.8457" stroke="#233C55" stroke-width="2.12128" stroke-miterlimit="10" stroke-linecap="round" stroke-linejoin="round"/>
<path d="M19.9751 53.3597V63.734C19.9751 66.2265 21.7291 68.3845 24.1756 68.8807C26.6451 69.3769 28.5145 66.942 32.7727 66.942C37.0193 66.942 38.9003 69.3769 41.3698 68.8807C43.8162 68.396 45.5702 66.2381 45.5702 63.734V53.3597" stroke="#233C55" stroke-width="2.12128" stroke-miterlimit="10" stroke-linecap="round" stroke-linejoin="round"/>
<path d="M41.4161 25.9528C41.4161 24.3142 40.9199 22.7217 40.0083 21.36" stroke="#233C55" stroke-width="2.12128" stroke-miterlimit="10" stroke-linecap="round" stroke-linejoin="round"/>
<path d="M38.0117 18.3943L36.8462 16.6864" stroke="#233C55" stroke-width="2.12128" stroke-miterlimit="10" stroke-linecap="round" stroke-linejoin="round" stroke-dasharray="0.78 0.78"/>
<path d="M20.6906 36.5117C19.3636 36.5117 18.8789 35.427 18.8789 34.0999V33.2806C18.8789 31.9535 19.3636 30.8688 20.6906 30.8688" stroke="#233C55" stroke-width="2.12128" stroke-miterlimit="10" stroke-linecap="round" stroke-linejoin="round"/>
<path d="M20.6906 42.1777C19.3636 42.1777 18.8789 41.093 18.8789 39.7659V38.9466C18.8789 37.6195 19.3636 36.5348 20.6906 36.5348" stroke="#233C55" stroke-width="2.12128" stroke-miterlimit="10" stroke-linecap="round" stroke-linejoin="round"/>
<path d="M20.6906 47.8321C19.3636 47.8321 18.8789 46.7474 18.8789 45.4203V44.601C18.8789 43.2739 19.3636 42.1892 20.6906 42.1892" stroke="#233C55" stroke-width="2.12128" stroke-miterlimit="10" stroke-linecap="round" stroke-linejoin="round"/>
<path d="M20.6906 53.4867C19.3636 53.4867 18.8789 52.4019 18.8789 51.0749V50.2556C18.8789 48.9285 19.3636 47.8438 20.6906 47.8438" stroke="#233C55" stroke-width="2.12128" stroke-miterlimit="10" stroke-linecap="round" stroke-linejoin="round"/>
<path d="M44.855 36.5117C46.182 36.5117 46.6667 35.427 46.6667 34.0999V33.2806C46.6667 31.9535 46.182 30.8688 44.855 30.8688" stroke="#233C55" stroke-width="2.12128" stroke-miterlimit="10" stroke-linecap="round" stroke-linejoin="round"/>
<path d="M44.855 42.1777C46.182 42.1777 46.6667 41.093 46.6667 39.7659V38.9466C46.6667 37.6195 46.182 36.5348 44.855 36.5348" stroke="#233C55" stroke-width="2.12128" stroke-miterlimit="10" stroke-linecap="round" stroke-linejoin="round"/>
<path d="M44.855 47.8321C46.182 47.8321 46.6667 46.7474 46.6667 45.4203V44.601C46.6667 43.2739 46.182 42.1892 44.855 42.1892" stroke="#233C55" stroke-width="2.12128" stroke-miterlimit="10" stroke-linecap="round" stroke-linejoin="round"/>
<path d="M44.855 47.8322C46.182 47.8322 46.6667 48.9169 46.6667 50.244V51.0633C46.6667 52.3903 46.182 53.4751 44.855 53.4751" stroke="#233C55" stroke-width="2.12128" stroke-miterlimit="10" stroke-linecap="round" stroke-linejoin="round"/>
<path d="M34.2268 53.4867H25.7104" stroke="#233C55" stroke-width="2.12128" stroke-miterlimit="10" stroke-linecap="round" stroke-linejoin="round"/>
<path d="M34.2268 47.8322H25.7104" stroke="#233C55" stroke-width="2.12128" stroke-miterlimit="10" stroke-linecap="round" stroke-linejoin="round"/>
<path d="M34.2268 42.1777H25.7104" stroke="#233C55" stroke-width="2.12128" stroke-miterlimit="10" stroke-linecap="round" stroke-linejoin="round"/>
<path d="M34.2268 36.5117H25.7104" stroke="#233C55" stroke-width="2.12128" stroke-miterlimit="10" stroke-linecap="round" stroke-linejoin="round"/>
<path d="M34.2268 30.8573H25.7104" stroke="#233C55" stroke-width="2.12128" stroke-miterlimit="10" stroke-linecap="round" stroke-linejoin="round"/>
<path d="M63.457 34.6769V29.034C63.457 27.5569 63.0185 26.1144 62.1877 24.8912L57.8026 18.429C57.0525 17.3327 56.6601 14.944 56.6601 13.6053H51.9058H47.1514C47.1514 14.4131 47.0014 15.6248 46.7129 16.6865" stroke="#233C55" stroke-width="2.12128" stroke-miterlimit="10" stroke-linecap="round" stroke-linejoin="round"/>
<path d="M49.2168 67.519C49.99 67.2997 50.867 67.1382 51.894 67.1382C55.7367 67.1382 57.4215 69.3307 59.6603 68.8807C61.8643 68.4422 63.4568 66.492 63.4568 64.2417V54.8715" stroke="#233C55" stroke-width="2.12128" stroke-miterlimit="10" stroke-linecap="round" stroke-linejoin="round"/>
<path d="M59.6952 30.1187C59.6952 28.6416 59.2566 27.1992 58.4258 25.976" stroke="#233C55" stroke-width="2.12128" stroke-miterlimit="10" stroke-linecap="round" stroke-linejoin="round"/>
<path d="M56.6253 23.3102L55.5752 21.7639" stroke="#233C55" stroke-width="2.12128" stroke-miterlimit="10" stroke-linecap="round" stroke-linejoin="round" stroke-dasharray="0.71 0.71"/>
<path d="M62.8105 39.662C64.0107 39.662 64.4492 38.6811 64.4492 37.481V36.7309C64.4492 35.5308 64.0107 34.5499 62.8105 34.5499" stroke="#233C55" stroke-width="2.12128" stroke-miterlimit="10" stroke-linecap="round" stroke-linejoin="round"/>
<path d="M62.8105 44.7742C64.0107 44.7742 64.4492 43.7933 64.4492 42.5932V41.8431C64.4492 40.643 64.0107 39.6621 62.8105 39.6621" stroke="#233C55" stroke-width="2.12128" stroke-miterlimit="10" stroke-linecap="round" stroke-linejoin="round"/>
<path d="M62.8105 49.8863C64.0107 49.8863 64.4492 48.9054 64.4492 47.7053V46.9552C64.4492 45.755 64.0107 44.7742 62.8105 44.7742" stroke="#233C55" stroke-width="2.12128" stroke-miterlimit="10" stroke-linecap="round" stroke-linejoin="round"/>
<path d="M62.8105 49.8862C64.0107 49.8862 64.4492 50.8671 64.4492 52.0672V52.8173C64.4492 54.0175 64.0107 54.9983 62.8105 54.9983" stroke="#233C55" stroke-width="2.12128" stroke-miterlimit="10" stroke-linecap="round" stroke-linejoin="round"/>
<path d="M18.7983 16.6865C18.5099 15.6248 18.3714 14.4131 18.3714 13.6053H13.617H8.8511C8.8511 14.9324 8.44721 17.3211 7.70867 18.429L3.32357 24.8912C2.49271 26.1144 2.0542 27.5569 2.0542 29.034V34.5615" stroke="#233C55" stroke-width="2.12128" stroke-miterlimit="10" stroke-linecap="round" stroke-linejoin="round"/>
<path d="M2.0542 54.8715V64.2417C2.0542 66.492 3.63514 68.4422 5.85077 68.8807C8.07794 69.3307 9.77428 67.1382 13.617 67.1382C14.7364 67.1382 15.6826 67.3228 16.5019 67.5767" stroke="#233C55" stroke-width="2.12128" stroke-miterlimit="10" stroke-linecap="round" stroke-linejoin="round"/>
<path d="M2.70017 39.662C1.50003 39.662 1.06152 38.6811 1.06152 37.481V36.7309C1.06152 35.5308 1.50003 34.5499 2.70017 34.5499" stroke="#233C55" stroke-width="2.12128" stroke-miterlimit="10" stroke-linecap="round" stroke-linejoin="round"/>
<path d="M2.70017 44.7742C1.50003 44.7742 1.06152 43.7933 1.06152 42.5932V41.8431C1.06152 40.643 1.50003 39.6621 2.70017 39.6621" stroke="#233C55" stroke-width="2.12128" stroke-miterlimit="10" stroke-linecap="round" stroke-linejoin="round"/>
<path d="M2.70017 49.8863C1.50003 49.8863 1.06152 48.9054 1.06152 47.7053V46.9552C1.06152 45.755 1.50003 44.7742 2.70017 44.7742" stroke="#233C55" stroke-width="2.12128" stroke-miterlimit="10" stroke-linecap="round" stroke-linejoin="round"/>
<path d="M2.70017 54.9869C1.50003 54.9869 1.06152 54.006 1.06152 52.8058V52.0558C1.06152 50.8556 1.50003 49.8748 2.70017 49.8748" stroke="#233C55" stroke-width="2.12128" stroke-miterlimit="10" stroke-linecap="round" stroke-linejoin="round"/>
<path d="M5.93164 30.1187C5.93164 28.6416 6.37015 27.1992 7.20101 25.976" stroke="#233C55" stroke-width="2.12128" stroke-miterlimit="10" stroke-linecap="round" stroke-linejoin="round"/>
<path d="M9.00098 23.3102L10.0511 21.7639" stroke="#233C55" stroke-width="2.12128" stroke-miterlimit="10" stroke-linecap="round" stroke-linejoin="round" stroke-dasharray="0.71 0.71"/>
<path d="M32.7729 1.06165C29.2879 1.06165 26.4722 1.67325 26.4722 2.42333V7.1777C26.4722 7.44312 26.6914 7.66237 26.9568 7.66237H38.6004C38.8658 7.66237 39.0851 7.44312 39.0851 7.1777V2.42333C39.0736 1.67325 36.2579 1.06165 32.7729 1.06165Z" stroke="#63B016" stroke-width="2.12128" stroke-miterlimit="10" stroke-linecap="round" stroke-linejoin="round"/>
<path d="M51.8942 7.65088C48.7554 7.65088 46.2051 8.20479 46.2051 8.87409V13.1669C46.2051 13.4092 46.4013 13.6054 46.6436 13.6054H57.1563C57.3986 13.6054 57.5948 13.4092 57.5948 13.1669V8.88563C57.5833 8.20479 55.0445 7.65088 51.8942 7.65088Z" stroke="#63B016" stroke-width="2.12128" stroke-miterlimit="10" stroke-linecap="round" stroke-linejoin="round"/>
<path d="M13.6056 7.65088C10.4668 7.65088 7.9165 8.20479 7.9165 8.87409V13.1669C7.9165 13.4092 8.11268 13.6054 8.35501 13.6054H18.8677C19.11 13.6054 19.3062 13.4092 19.3062 13.1669V8.88563C19.2947 8.20479 16.7559 7.65088 13.6056 7.65088Z" stroke="#63B016" stroke-width="2.12128" stroke-miterlimit="10" stroke-linecap="round" stroke-linejoin="round"/>
</g>
<defs>
<clipPath id="clip0">
<rect width="65.4995" height="70" fill="white"/>
</clipPath>
</defs>
</svg>
